<svg width="261" height="179" viewBox="0 0 261 179" fill="none" xmlns="http://www.w3.org/2000/svg">
<mask id="path-1-outside-1_123_204" maskUnits="userSpaceOnUse" x="177.161" y="45.2657" width="77.2252" height="87.2883" fill="black">
<rect fill="white" x="177.161" y="45.2657" width="77.2252" height="87.2883"/>
<path d="M223.052 122.908C221.11 123.314 219.495 123.096 218.207 122.254C216.969 121.336 216.14 119.875 215.721 117.87L209.746 89.3041L213.797 96.0089L184.488 68.8909C183.438 67.9336 182.813 66.822 182.614 65.556C182.464 64.2143 182.767 63.0066 183.523 61.9331C184.266 60.7969 185.483 60.0519 187.175 59.6981C188.428 59.436 189.621 59.5134 190.754 59.9302C191.95 60.3339 193.156 61.0952 194.37 62.2142L216.183 82.5636L213.552 83.1139L225.473 55.7087C226.187 54.1208 226.955 52.9468 227.777 52.1864C228.586 51.3634 229.679 50.8078 231.057 50.5195C232.686 50.1789 234.031 50.3553 235.091 51.0489C236.201 51.6667 236.887 52.6021 237.149 53.855C237.474 55.0948 237.311 56.502 236.659 58.0768L220.844 94.5348L221.774 86.7884L227.749 115.354C228.627 119.551 227.061 122.069 223.052 122.908Z"/>
</mask>
<path d="M223.052 122.908C221.11 123.314 219.495 123.096 218.207 122.254C216.969 121.336 216.14 119.875 215.721 117.87L209.746 89.3041L213.797 96.0089L184.488 68.8909C183.438 67.9336 182.813 66.822 182.614 65.556C182.464 64.2143 182.767 63.0066 183.523 61.9331C184.266 60.7969 185.483 60.0519 187.175 59.6981C188.428 59.436 189.621 59.5134 190.754 59.9302C191.95 60.3339 193.156 61.0952 194.37 62.2142L216.183 82.5636L213.552 83.1139L225.473 55.7087C226.187 54.1208 226.955 52.9468 227.777 52.1864C228.586 51.3634 229.679 50.8078 231.057 50.5195C232.686 50.1789 234.031 50.3553 235.091 51.0489C236.201 51.6667 236.887 52.6021 237.149 53.855C237.474 55.0948 237.311 56.502 236.659 58.0768L220.844 94.5348L221.774 86.7884L227.749 115.354C228.627 119.551 227.061 122.069 223.052 122.908Z" fill="#FF00D9"/>
<path d="M218.207 122.254L216.421 124.664L216.492 124.716L216.565 124.764L218.207 122.254ZM209.746 89.3041L212.314 87.7529L206.81 89.9183L209.746 89.3041ZM213.797 96.0089L211.759 98.2109L216.365 94.4576L213.797 96.0089ZM184.488 68.8909L186.525 66.6889L186.517 66.6813L186.509 66.6737L184.488 68.8909ZM182.614 65.556L179.632 65.889L179.64 65.9561L179.65 66.0228L182.614 65.556ZM183.523 61.9331L185.976 63.6607L186.005 63.6184L186.034 63.5751L183.523 61.9331ZM190.754 59.9302L189.719 62.7458L189.757 62.7597L189.795 62.7726L190.754 59.9302ZM194.37 62.2142L196.417 60.0206L196.41 60.0141L196.403 60.0077L194.37 62.2142ZM216.183 82.5636L216.797 85.5001L222.459 84.3158L218.229 80.37L216.183 82.5636ZM213.552 83.1139L210.801 81.9172L208.486 87.2384L214.166 86.0504L213.552 83.1139ZM225.473 55.7087L222.737 54.4782L222.73 54.495L222.722 54.5119L225.473 55.7087ZM227.777 52.1864L229.815 54.3884L229.867 54.3399L229.917 54.289L227.777 52.1864ZM235.091 51.0489L233.449 53.5596L233.539 53.6182L233.632 53.6702L235.091 51.0489ZM237.149 53.855L234.213 54.4692L234.228 54.5426L234.247 54.6151L237.149 53.855ZM236.659 58.0768L239.411 59.2706L239.422 59.2471L239.431 59.2235L236.659 58.0768ZM220.844 94.5348L217.866 94.1773L223.596 95.7287L220.844 94.5348ZM221.774 86.7884L224.71 86.1742L218.795 86.4309L221.774 86.7884ZM222.438 119.971C221.039 120.264 220.294 120.034 219.849 119.743L216.565 124.764C218.696 126.158 221.181 126.364 223.666 125.844L222.438 119.971ZM219.994 119.844C219.517 119.49 218.977 118.782 218.658 117.256L212.785 118.484C213.304 120.968 214.421 123.181 216.421 124.664L219.994 119.844ZM218.658 117.256L212.683 88.6899L206.81 89.9183L212.785 118.484L218.658 117.256ZM207.178 90.8554L211.229 97.5601L216.365 94.4576L212.314 87.7529L207.178 90.8554ZM215.834 93.8069L186.525 66.6889L182.451 71.0929L211.759 98.2109L215.834 93.8069ZM186.509 66.6737C185.905 66.1228 185.659 65.6077 185.577 65.0892L179.65 66.0228C179.967 68.0363 180.971 69.7445 182.467 71.1081L186.509 66.6737ZM185.595 65.223C185.524 64.5872 185.654 64.1168 185.976 63.6607L181.071 60.2054C179.879 61.8965 179.403 63.8414 179.632 65.889L185.595 65.223ZM186.034 63.5751C186.231 63.2739 186.653 62.8721 187.789 62.6345L186.561 56.7616C184.314 57.2317 182.302 58.3198 181.012 60.291L186.034 63.5751ZM187.789 62.6345C188.526 62.4804 189.145 62.5349 189.719 62.7458L191.79 57.1146C190.097 56.4919 188.329 56.3917 186.561 56.7616L187.789 62.6345ZM189.795 62.7726C190.49 63.0073 191.341 63.5027 192.338 64.4208L196.403 60.0077C194.97 58.6878 193.411 57.6605 191.714 57.0878L189.795 62.7726ZM192.324 64.4078L214.136 84.7572L218.229 80.37L196.417 60.0206L192.324 64.4078ZM215.568 79.6272L212.937 80.1775L214.166 86.0504L216.797 85.5001L215.568 79.6272ZM216.303 84.3107L228.224 56.9054L222.722 54.5119L210.801 81.9172L216.303 84.3107ZM228.209 56.9391C228.84 55.5364 229.407 54.7659 229.815 54.3884L225.74 49.9844C224.504 51.1276 223.535 52.7053 222.737 54.4782L228.209 56.9391ZM229.917 54.289C230.227 53.9736 230.744 53.65 231.671 53.456L230.443 47.5831C228.614 47.9656 226.944 48.7533 225.637 50.0838L229.917 54.289ZM231.671 53.456C232.775 53.2252 233.244 53.4252 233.449 53.5596L236.733 48.5382C234.818 47.2854 232.597 47.1325 230.443 47.5831L231.671 53.456ZM233.632 53.6702C233.975 53.8612 234.127 54.0605 234.213 54.4692L240.086 53.2408C239.647 51.1437 238.427 49.4723 236.55 48.4276L233.632 53.6702ZM234.247 54.6151C234.359 55.0419 234.37 55.7614 233.887 56.93L239.431 59.2235C240.251 57.2427 240.589 55.1477 240.051 53.0949L234.247 54.6151ZM233.907 56.8829L218.092 93.3409L223.596 95.7287L239.411 59.2706L233.907 56.8829ZM223.823 94.8923L224.753 87.1459L218.795 86.4309L217.866 94.1773L223.823 94.8923ZM218.838 87.4026L224.812 115.968L230.685 114.74L224.71 86.1742L218.838 87.4026ZM224.812 115.968C225.164 117.647 224.91 118.445 224.685 118.806C224.48 119.137 223.955 119.654 222.438 119.971L223.666 125.844C226.158 125.323 228.421 124.162 229.781 121.975C231.122 119.818 231.212 117.258 230.685 114.74L224.812 115.968Z" fill="black" mask="url(#path-1-outside-1_123_204)"/>
<mask id="path-3-outside-2_123_204" maskUnits="userSpaceOnUse" x="63.1983" y="51.0394" width="65.5943" height="73.6755" fill="black">
<rect fill="white" x="63.1983" y="51.0394" width="65.5943" height="73.6755"/>
<path d="M90.9302 116.736C87.0979 116.05 83.801 114.945 81.0396 113.421C78.3308 111.907 76.1528 110 74.5056 107.7C72.8678 105.348 71.8134 102.613 71.3423 99.4943C70.8711 96.3758 70.9833 92.8741 71.6789 88.9892L76.7403 60.7187C77.0505 58.9862 77.7007 57.7752 78.6911 57.0856C79.734 56.4054 81.0691 56.211 82.6966 56.5024C84.324 56.7938 85.4826 57.4346 86.1721 58.425C86.9142 59.4248 87.1302 60.7909 86.82 62.5233L81.7727 90.7151C80.8798 95.7024 81.3365 99.6582 83.1428 102.582C85.0109 105.463 88.1237 107.294 92.4811 108.074C96.8385 108.854 100.367 108.212 103.066 106.149C105.775 104.033 107.575 100.482 108.468 95.4945L113.516 67.3028C113.826 65.5703 114.476 64.3593 115.466 63.6697C116.509 62.9895 117.844 62.7951 119.472 63.0865C121.047 63.3684 122.179 64.0046 122.869 64.995C123.611 65.9947 123.827 67.3609 123.517 69.0933L118.455 97.3638C117.534 102.509 115.866 106.68 113.451 109.878C111.089 113.085 108.016 115.271 104.231 116.436C100.456 117.548 96.0226 117.648 90.9302 116.736Z"/>
</mask>
<path d="M90.9302 116.736C87.0979 116.05 83.801 114.945 81.0396 113.421C78.3308 111.907 76.1528 110 74.5056 107.7C72.8678 105.348 71.8134 102.613 71.3423 99.4943C70.8711 96.3758 70.9833 92.8741 71.6789 88.9892L76.7403 60.7187C77.0505 58.9862 77.7007 57.7752 78.6911 57.0856C79.734 56.4054 81.0691 56.211 82.6966 56.5024C84.324 56.7938 85.4826 57.4346 86.1721 58.425C86.9142 59.4248 87.1302 60.7909 86.82 62.5233L81.7727 90.7151C80.8798 95.7024 81.3365 99.6582 83.1428 102.582C85.0109 105.463 88.1237 107.294 92.4811 108.074C96.8385 108.854 100.367 108.212 103.066 106.149C105.775 104.033 107.575 100.482 108.468 95.4945L113.516 67.3028C113.826 65.5703 114.476 64.3593 115.466 63.6697C116.509 62.9895 117.844 62.7951 119.472 63.0865C121.047 63.3684 122.179 64.0046 122.869 64.995C123.611 65.9947 123.827 67.3609 123.517 69.0933L118.455 97.3638C117.534 102.509 115.866 106.68 113.451 109.878C111.089 113.085 108.016 115.271 104.231 116.436C100.456 117.548 96.0226 117.648 90.9302 116.736Z" fill="#FFD900"/>
<path d="M81.0396 113.421L79.5757 116.04L79.5829 116.044L79.5902 116.048L81.0396 113.421ZM74.5056 107.7L72.0437 109.414L72.0551 109.431L72.0667 109.447L74.5056 107.7ZM71.3423 99.4943L74.3086 99.0462L71.3423 99.4943ZM78.6911 57.0856L77.0522 54.5729L77.0141 54.5977L76.9768 54.6237L78.6911 57.0856ZM86.1721 58.425L83.7102 60.1393L83.7361 60.1766L83.7632 60.2131L86.1721 58.425ZM83.1428 102.582L80.5905 104.159L80.6077 104.187L80.6256 104.214L83.1428 102.582ZM103.066 106.149L104.888 108.533L104.9 108.523L104.913 108.513L103.066 106.149ZM115.466 63.6697L113.827 61.1569L113.789 61.1818L113.752 61.2077L115.466 63.6697ZM122.869 64.995L120.407 66.7093L120.433 66.7465L120.46 66.783L122.869 64.995ZM113.451 109.878L111.057 108.07L111.046 108.084L111.036 108.099L113.451 109.878ZM104.231 116.436L105.079 119.313L105.097 119.308L105.114 119.303L104.231 116.436ZM91.4589 113.783C87.8765 113.142 84.9052 112.128 82.4891 110.795L79.5902 116.048C82.6968 117.762 86.3192 118.958 90.4015 119.689L91.4589 113.783ZM82.5036 110.803C80.142 109.482 78.3106 107.861 76.9445 105.953L72.0667 109.447C73.995 112.139 76.5196 114.331 79.5757 116.04L82.5036 110.803ZM76.9676 105.986C75.6184 104.048 74.718 101.756 74.3086 99.0462L68.3759 99.9424C68.9088 103.47 70.1173 106.648 72.0437 109.414L76.9676 105.986ZM74.3086 99.0462C73.897 96.3215 73.9803 93.1577 74.6319 89.5179L68.7258 88.4605C67.9864 92.5905 67.8453 96.43 68.3759 99.9424L74.3086 99.0462ZM74.6319 89.5179L79.6933 61.2474L73.7873 60.19L68.7258 88.4605L74.6319 89.5179ZM79.6933 61.2474C79.9275 59.9394 80.3161 59.6098 80.4054 59.5476L76.9768 54.6237C75.0854 55.9407 74.1734 58.0331 73.7873 60.19L79.6933 61.2474ZM80.33 59.5984C80.5459 59.4576 81.0398 59.2535 82.1679 59.4554L83.2253 53.5494C81.0984 53.1686 78.922 53.3533 77.0522 54.5729L80.33 59.5984ZM82.1679 59.4554C83.3086 59.6597 83.6224 60.0133 83.7102 60.1393L88.6341 56.7107C87.3427 54.856 85.3394 53.9279 83.2253 53.5494L82.1679 59.4554ZM83.7632 60.2131C83.837 60.3124 84.0929 60.7326 83.867 61.9946L89.7731 63.052C90.1675 60.8491 89.9915 58.5372 88.5811 56.637L83.7632 60.2131ZM83.867 61.9946L78.8197 90.1864L84.7258 91.2438L89.7731 63.052L83.867 61.9946ZM78.8197 90.1864C77.857 95.5633 78.2472 100.365 80.5905 104.159L85.6951 101.006C84.4258 98.9509 83.9026 95.8416 84.7258 91.2438L78.8197 90.1864ZM80.6256 104.214C83.067 107.979 87.0276 110.145 91.9524 111.027L93.0098 105.121C89.2198 104.442 86.9549 102.947 85.6599 100.95L80.6256 104.214ZM91.9524 111.027C96.8733 111.908 101.332 111.251 104.888 108.533L101.244 103.766C99.4014 105.174 96.8037 105.8 93.0098 105.121L91.9524 111.027ZM104.913 108.513C108.427 105.769 110.459 101.4 111.421 96.0232L105.515 94.9658C104.692 99.5636 103.123 102.298 101.219 103.785L104.913 108.513ZM111.421 96.0232L116.469 67.8315L110.563 66.7741L105.515 94.9658L111.421 96.0232ZM116.469 67.8315C116.703 66.5235 117.091 66.1938 117.181 66.1317L113.752 61.2077C111.861 62.5248 110.949 64.6172 110.563 66.7741L116.469 67.8315ZM117.105 66.1825C117.321 66.0416 117.815 65.8376 118.943 66.0395L120.001 60.1334C117.874 59.7527 115.697 59.9374 113.827 61.1569L117.105 66.1825ZM118.943 66.0395C119.999 66.2286 120.305 66.5633 120.407 66.7093L125.331 63.2807C124.053 61.446 122.095 60.5083 120.001 60.1334L118.943 66.0395ZM120.46 66.783C120.533 66.8824 120.789 67.3026 120.563 68.5646L126.47 69.622C126.864 67.4191 126.688 65.1071 125.278 63.2069L120.46 66.783ZM120.563 68.5646L115.502 96.8351L121.408 97.8925L126.47 69.622L120.563 68.5646ZM115.502 96.8351C114.64 101.652 113.115 105.345 111.057 108.07L115.846 111.686C118.618 108.015 120.428 103.365 121.408 97.8925L115.502 96.8351ZM111.036 108.099C109.052 110.792 106.515 112.594 103.349 113.568L105.114 119.303C109.517 117.948 113.126 115.378 115.867 111.657L111.036 108.099ZM103.384 113.558C100.173 114.504 96.2314 114.638 91.4589 113.783L90.4015 119.689C95.8138 120.658 100.74 120.592 105.079 119.313L103.384 113.558Z" fill="black" mask="url(#path-3-outside-2_123_204)"/>
<mask id="path-5-outside-3_123_204" maskUnits="userSpaceOnUse" x="2" y="37" width="72" height="95" fill="black">
<rect fill="white" x="2" y="37" width="72" height="95"/>
<path d="M63.648 119.848C64.544 121.256 64.896 122.536 64.704 123.688C64.512 124.84 64 125.8 63.168 126.568C62.336 127.4 61.312 127.912 60.096 128.104C58.88 128.36 57.664 128.232 56.448 127.72C55.232 127.272 54.208 126.376 53.376 125.032L46.752 114.376C45.856 112.904 44.64 111.784 43.104 111.016C41.632 110.312 39.808 109.96 37.632 109.96L47.136 106.216C50.144 106.216 52.544 106.76 54.336 107.848C56.128 108.872 57.856 110.696 59.52 113.32L63.648 119.848ZM37.728 109.96C31.2 109.96 25.472 108.52 20.544 105.64C15.68 102.76 11.904 98.728 9.216 93.544C6.528 88.296 5.184 82.152 5.184 75.112C5.184 69.8 5.952 65.032 7.488 60.808C9.024 56.52 11.2 52.872 14.016 49.864C16.896 46.792 20.32 44.456 24.288 42.856C28.32 41.192 32.8 40.36 37.728 40.36C44.32 40.36 50.048 41.8 54.912 44.68C59.776 47.496 63.552 51.496 66.24 56.68C68.928 61.864 70.272 67.976 70.272 75.016C70.272 80.328 69.504 85.128 67.968 89.416C66.432 93.704 64.224 97.384 61.344 100.456C58.528 103.528 55.104 105.896 51.072 107.56C47.104 109.16 42.656 109.96 37.728 109.96ZM37.728 99.4C41.888 99.4 45.408 98.44 48.288 96.52C51.232 94.6 53.472 91.816 55.008 88.168C56.608 84.52 57.408 80.168 57.408 75.112C57.408 67.432 55.68 61.48 52.224 57.256C48.832 53.032 44 50.92 37.728 50.92C33.632 50.92 30.112 51.88 27.168 53.8C24.224 55.656 21.952 58.408 20.352 62.056C18.816 65.64 18.048 69.992 18.048 75.112C18.048 82.728 19.776 88.68 23.232 92.968C26.688 97.256 31.52 99.4 37.728 99.4Z"/>
</mask>
<path d="M63.648 119.848C64.544 121.256 64.896 122.536 64.704 123.688C64.512 124.84 64 125.8 63.168 126.568C62.336 127.4 61.312 127.912 60.096 128.104C58.88 128.36 57.664 128.232 56.448 127.72C55.232 127.272 54.208 126.376 53.376 125.032L46.752 114.376C45.856 112.904 44.64 111.784 43.104 111.016C41.632 110.312 39.808 109.96 37.632 109.96L47.136 106.216C50.144 106.216 52.544 106.76 54.336 107.848C56.128 108.872 57.856 110.696 59.52 113.32L63.648 119.848ZM37.728 109.96C31.2 109.96 25.472 108.52 20.544 105.64C15.68 102.76 11.904 98.728 9.216 93.544C6.528 88.296 5.184 82.152 5.184 75.112C5.184 69.8 5.952 65.032 7.488 60.808C9.024 56.52 11.2 52.872 14.016 49.864C16.896 46.792 20.32 44.456 24.288 42.856C28.32 41.192 32.8 40.36 37.728 40.36C44.32 40.36 50.048 41.8 54.912 44.68C59.776 47.496 63.552 51.496 66.24 56.68C68.928 61.864 70.272 67.976 70.272 75.016C70.272 80.328 69.504 85.128 67.968 89.416C66.432 93.704 64.224 97.384 61.344 100.456C58.528 103.528 55.104 105.896 51.072 107.56C47.104 109.16 42.656 109.96 37.728 109.96ZM37.728 99.4C41.888 99.4 45.408 98.44 48.288 96.52C51.232 94.6 53.472 91.816 55.008 88.168C56.608 84.52 57.408 80.168 57.408 75.112C57.408 67.432 55.68 61.48 52.224 57.256C48.832 53.032 44 50.92 37.728 50.92C33.632 50.92 30.112 51.88 27.168 53.8C24.224 55.656 21.952 58.408 20.352 62.056C18.816 65.64 18.048 69.992 18.048 75.112C18.048 82.728 19.776 88.68 23.232 92.968C26.688 97.256 31.52 99.4 37.728 99.4Z" fill="#FF0000"/>
<path d="M63.648 119.848L61.1124 121.451L61.117 121.459L63.648 119.848ZM64.704 123.688L67.6632 124.181L64.704 123.688ZM63.168 126.568L61.1332 124.364L61.0891 124.404L61.0467 124.447L63.168 126.568ZM60.096 128.104L59.6281 125.141L59.5527 125.153L59.478 125.168L60.096 128.104ZM56.448 127.72L57.6122 124.955L57.5492 124.929L57.4851 124.905L56.448 127.72ZM53.376 125.032L55.9268 123.453L55.9239 123.448L53.376 125.032ZM46.752 114.376L44.1894 115.936L44.1967 115.948L44.2041 115.96L46.752 114.376ZM43.104 111.016L44.4456 108.333L44.4221 108.321L44.3984 108.31L43.104 111.016ZM37.632 109.96L36.5324 107.169L37.632 112.96V109.96ZM47.136 106.216V103.216H46.5664L46.0364 103.425L47.136 106.216ZM54.336 107.848L52.7791 110.412L52.8131 110.433L52.8476 110.453L54.336 107.848ZM59.52 113.32L62.0556 111.717L62.0535 111.713L59.52 113.32ZM20.544 105.64L19.0155 108.221L19.0229 108.226L19.0303 108.23L20.544 105.64ZM9.216 93.544L6.54587 94.9116L6.54929 94.9183L6.55274 94.9249L9.216 93.544ZM7.488 60.808L10.3074 61.8332L10.3098 61.8265L10.3123 61.8197L7.488 60.808ZM14.016 49.864L11.8274 47.8122L11.8259 47.8137L14.016 49.864ZM24.288 42.856L25.4099 45.6383L25.4212 45.6338L25.4325 45.6291L24.288 42.856ZM54.912 44.68L53.3835 47.2614L53.3962 47.2689L53.4089 47.2763L54.912 44.68ZM66.24 56.68L68.9033 55.299L66.24 56.68ZM67.968 89.416L65.1437 88.4043L67.968 89.416ZM61.344 100.456L59.1554 98.4042L59.1439 98.4164L59.1325 98.4288L61.344 100.456ZM51.072 107.56L52.1939 110.342L52.2052 110.338L52.2165 110.333L51.072 107.56ZM48.288 96.52L46.6492 94.0072L46.6365 94.0154L46.6239 94.0238L48.288 96.52ZM55.008 88.168L52.2606 86.963L52.2517 86.9834L52.2431 87.0038L55.008 88.168ZM52.224 57.256L49.8849 59.1344L49.8934 59.1451L49.9021 59.1557L52.224 57.256ZM27.168 53.8L28.7679 56.3378L28.7875 56.3255L28.8068 56.3128L27.168 53.8ZM20.352 62.056L17.6046 60.851L17.5996 60.8626L17.5946 60.8742L20.352 62.056ZM23.232 92.968L25.5678 91.0854H25.5678L23.232 92.968ZM61.117 121.459C61.7846 122.508 61.7718 123.033 61.7448 123.195L67.6632 124.181C68.0202 122.039 67.3034 120.004 66.179 118.237L61.117 121.459ZM61.7448 123.195C61.6586 123.712 61.4592 124.063 61.1332 124.364L65.2029 128.772C66.5408 127.537 67.3654 125.968 67.6632 124.181L61.7448 123.195ZM61.0467 124.447C60.6846 124.809 60.2487 125.043 59.6281 125.141L60.5639 131.067C62.3753 130.781 63.9874 129.991 65.2893 128.689L61.0467 124.447ZM59.478 125.168C58.8974 125.291 58.302 125.246 57.6122 124.955L55.2838 130.485C57.026 131.218 58.8626 131.429 60.714 131.04L59.478 125.168ZM57.4851 124.905C57.0261 124.736 56.486 124.356 55.9268 123.453L50.8252 126.611C51.93 128.396 53.4379 129.808 55.4109 130.535L57.4851 124.905ZM55.9239 123.448L49.2999 112.792L44.2041 115.96L50.8281 126.616L55.9239 123.448ZM49.3146 112.816C48.1264 110.864 46.488 109.354 44.4456 108.333L41.7624 113.699C42.792 114.214 43.5856 114.944 44.1894 115.936L49.3146 112.816ZM44.3984 108.31C42.4109 107.359 40.1135 106.96 37.632 106.96V112.96C39.5025 112.96 40.8531 113.265 41.8096 113.722L44.3984 108.31ZM38.7316 112.751L48.2356 109.007L46.0364 103.425L36.5324 107.169L38.7316 112.751ZM47.136 109.216C49.8207 109.216 51.6178 109.707 52.7791 110.412L55.8929 105.284C53.4702 103.813 50.4673 103.216 47.136 103.216V109.216ZM52.8476 110.453C54.0542 111.142 55.4628 112.524 56.9865 114.927L62.0535 111.713C60.2492 108.868 58.2018 106.602 55.8244 105.243L52.8476 110.453ZM56.9844 114.923L61.1124 121.451L66.1836 118.245L62.0556 111.717L56.9844 114.923ZM37.728 106.96C31.6543 106.96 26.4637 105.625 22.0577 103.05L19.0303 108.23C24.4804 111.415 30.7457 112.96 37.728 112.96V106.96ZM22.0725 103.059C17.7082 100.474 14.3178 96.8659 11.8793 92.163L6.55274 94.9249C9.49022 100.59 13.6518 105.046 19.0155 108.221L22.0725 103.059ZM11.8861 92.1764C9.45316 87.4263 8.184 81.768 8.184 75.112H2.184C2.184 82.536 3.60284 89.1657 6.54587 94.9116L11.8861 92.1764ZM8.184 75.112C8.184 70.0875 8.9104 65.6749 10.3074 61.8332L4.66862 59.7828C2.9936 64.3891 2.184 69.5125 2.184 75.112H8.184ZM10.3123 61.8197C11.7247 57.8767 13.6984 54.5929 16.2061 51.9143L11.8259 47.8137C8.70157 51.1511 6.32332 55.1633 4.66373 59.7963L10.3123 61.8197ZM16.2046 51.9158C18.7815 49.1672 21.8396 47.0779 25.4099 45.6383L23.1661 40.0737C18.8004 41.8341 15.0105 44.4168 11.8274 47.8122L16.2046 51.9158ZM25.4325 45.6291C29.0574 44.1331 33.1419 43.36 37.728 43.36V37.36C32.4581 37.36 27.5826 38.2509 23.1435 40.0829L25.4325 45.6291ZM37.728 43.36C43.8726 43.36 49.0544 44.6981 53.3835 47.2614L56.4405 42.0986C51.0416 38.9019 44.7674 37.36 37.728 37.36V43.36ZM53.4089 47.2763C57.7584 49.7944 61.141 53.3635 63.5767 58.061L68.9033 55.299C65.963 49.6285 61.7936 45.1976 56.4151 42.0837L53.4089 47.2763ZM63.5767 58.061C66.0024 62.7391 67.272 68.3587 67.272 75.016H73.272C73.272 67.5933 71.8536 60.9889 68.9033 55.299L63.5767 58.061ZM67.272 75.016C67.272 80.0394 66.5459 84.4899 65.1437 88.4043L70.7923 90.4277C72.4621 85.7661 73.272 80.6166 73.272 75.016H67.272ZM65.1437 88.4043C63.7348 92.3377 61.7323 95.6555 59.1554 98.4042L63.5326 102.508C66.7158 99.1125 69.1292 95.0703 70.7923 90.4277L65.1437 88.4043ZM59.1325 98.4288C56.6272 101.162 53.573 103.282 49.9275 104.787L52.2165 110.333C56.635 108.51 60.4288 105.894 63.5555 102.483L59.1325 98.4288ZM49.9501 104.778C46.3886 106.214 42.3293 106.96 37.728 106.96V112.96C42.9827 112.96 47.8194 112.106 52.1939 110.342L49.9501 104.778ZM37.728 102.4C42.359 102.4 46.4872 101.326 49.9521 99.0162L46.6239 94.0238C44.3288 95.5539 41.417 96.4 37.728 96.4V102.4ZM49.9268 99.0328C53.4341 96.7454 56.0349 93.4599 57.7729 89.3322L52.2431 87.0038C50.9091 90.1721 49.0299 92.4546 46.6492 94.0072L49.9268 99.0328ZM57.7554 89.373C59.5604 85.2576 60.408 80.4751 60.408 75.112H54.408C54.408 79.8609 53.6556 83.7824 52.2606 86.963L57.7554 89.373ZM60.408 75.112C60.408 67.0171 58.5888 60.2977 54.5459 55.3563L49.9021 59.1557C52.7712 62.6623 54.408 67.8469 54.408 75.112H60.408ZM54.5631 55.3776C50.508 50.3278 44.7483 47.92 37.728 47.92V53.92C43.2517 53.92 47.156 55.7362 49.8849 59.1344L54.5631 55.3776ZM37.728 47.92C33.1484 47.92 29.037 48.9995 25.5292 51.2872L28.8068 56.3128C31.187 54.7605 34.1156 53.92 37.728 53.92V47.92ZM25.5681 51.2622C22.0464 53.4824 19.4095 56.736 17.6046 60.851L23.0994 63.261C24.4945 60.08 26.4016 57.8296 28.7679 56.3378L25.5681 51.2622ZM17.5946 60.8742C15.8569 64.9288 15.048 69.7068 15.048 75.112H21.048C21.048 70.2772 21.7751 66.3512 23.1094 63.2378L17.5946 60.8742ZM15.048 75.112C15.048 83.1536 16.8718 89.8574 20.8962 94.8506L25.5678 91.0854C22.6802 87.5026 21.048 82.3024 21.048 75.112H15.048ZM20.8962 94.8506C24.9989 99.941 30.7431 102.4 37.728 102.4V96.4C32.2969 96.4 28.3771 94.571 25.5678 91.0854L20.8962 94.8506Z" fill="black" mask="url(#path-5-outside-3_123_204)"/>
<mask id="path-7-outside-4_123_204" maskUnits="userSpaceOnUse" x="116.021" y="36.1389" width="33.4835" height="101.841" fill="black">
<rect fill="white" x="116.021" y="36.1389" width="33.4835" height="101.841"/>
<path d="M137.226 132.867C134.593 133.12 132.485 132.595 130.901 131.29C129.395 129.892 128.515 127.877 128.261 125.244L121.028 50.1993C120.766 47.4812 121.245 45.3347 122.465 43.7597C123.769 42.1766 125.738 41.2581 128.372 41.0043C131.005 40.7505 133.07 41.2801 134.569 42.5931C136.152 43.8979 137.074 45.9093 137.336 48.6274L144.57 123.672C144.823 126.305 144.344 128.451 143.133 130.111C141.913 131.686 139.944 132.605 137.226 132.867Z"/>
</mask>
<path d="M137.226 132.867C134.593 133.12 132.485 132.595 130.901 131.29C129.395 129.892 128.515 127.877 128.261 125.244L121.028 50.1993C120.766 47.4812 121.245 45.3347 122.465 43.7597C123.769 42.1766 125.738 41.2581 128.372 41.0043C131.005 40.7505 133.07 41.2801 134.569 42.5931C136.152 43.8979 137.074 45.9093 137.336 48.6274L144.57 123.672C144.823 126.305 144.344 128.451 143.133 130.111C141.913 131.686 139.944 132.605 137.226 132.867Z" fill="#34CC0A"/>
<path d="M130.901 131.29L128.861 133.489L128.925 133.549L128.993 133.605L130.901 131.29ZM122.465 43.7597L120.15 41.8517L120.121 41.8868L120.093 41.9227L122.465 43.7597ZM134.569 42.5931L132.591 44.8493L132.626 44.8792L132.661 44.9081L134.569 42.5931ZM143.133 130.111L145.505 131.948L145.531 131.914L145.556 131.88L143.133 130.111ZM136.938 129.88C134.857 130.081 133.615 129.639 132.809 128.975L128.993 133.605C131.354 135.551 134.328 136.16 137.514 135.853L136.938 129.88ZM132.942 129.091C132.114 128.323 131.451 127.073 131.247 124.956L125.275 125.531C125.578 128.68 126.676 131.461 128.861 133.489L132.942 129.091ZM131.247 124.956L124.014 49.9115L118.042 50.4871L125.275 125.531L131.247 124.956ZM124.014 49.9115C123.798 47.6683 124.235 46.3734 124.836 45.5968L120.093 41.9227C118.255 44.296 117.734 47.2942 118.042 50.4871L124.014 49.9115ZM124.78 45.6678C125.444 44.8623 126.579 44.191 128.659 43.9905L128.084 38.0181C124.898 38.3252 122.095 39.4909 120.15 41.8517L124.78 45.6678ZM128.659 43.9905C130.751 43.7889 131.9 44.2437 132.591 44.8493L136.546 40.3369C134.24 38.3165 131.258 37.7122 128.084 38.0181L128.659 43.9905ZM132.661 44.9081C133.447 45.5567 134.138 46.7181 134.35 48.9152L140.322 48.3396C140.01 45.1005 138.856 42.2391 136.477 40.278L132.661 44.9081ZM134.35 48.9152L141.583 123.959L147.556 123.384L140.322 48.3396L134.35 48.9152ZM141.583 123.959C141.788 126.077 141.375 127.43 140.71 128.342L145.556 131.88C147.314 129.472 147.859 126.532 147.556 123.384L141.583 123.959ZM140.761 128.274C140.213 128.981 139.148 129.667 136.938 129.88L137.514 135.853C140.74 135.542 143.612 134.391 145.505 131.948L140.761 128.274Z" fill="black" mask="url(#path-7-outside-4_123_204)"/>
<path d="M184.047 111.436C179.575 113.718 174.049 112.118 171.51 107.72L148.689 68.1942C153.162 65.9122 158.688 67.5117 161.227 71.9103L184.047 111.436Z" fill="#41E3FC" stroke="black" stroke-linejoin="round"/>
<rect x="193.415" y="55.451" width="86.4115" height="13" rx="6.5" transform="rotate(120 193.415 55.451)" fill="#41E3FC" stroke="black" stroke-width="3" stroke-linejoin="round"/>
<rect x="190.515" y="64.2266" width="49" height="13" rx="6.5" transform="rotate(-180 190.515 64.2266)" fill="#41E3FC" stroke="black" stroke-width="3" stroke-linejoin="round"/>
<rect x="189.015" y="128.727" width="47" height="12" rx="6" transform="rotate(-180 189.015 128.727)" fill="#41E3FC" stroke="black" stroke-width="2"/>
<rect x="191.366" y="56" width="83.4115" height="10" rx="5" transform="rotate(120 191.366 56)" fill="#41E3FC"/>
</svg>
