<svg width="52" height="52" viewBox="0 0 52 52" fill="none" xmlns="http://www.w3.org/2000/svg">
<g clip-path="url(#clip0_66_410)">
<path d="M51.3804 26.4865C51.3804 24.356 51.2075 22.8014 50.8334 21.1892H26.5061V30.8048H40.7857C40.4979 33.1945 38.9432 36.7932 35.4884 39.2114L35.44 39.5333L43.1318 45.4921L43.6647 45.5453C48.5589 41.0252 51.3804 34.3748 51.3804 26.4865Z" fill="#4285F4"/>
<path d="M26.5061 51.8214C33.5019 51.8214 39.3749 49.5181 43.6647 45.5453L35.4884 39.2114C33.3004 40.7372 30.3638 41.8025 26.5061 41.8025C19.6542 41.8025 13.8387 37.2826 11.7657 31.0353L11.4618 31.0611L3.46373 37.2509L3.35913 37.5416C7.61996 46.0057 16.372 51.8214 26.5061 51.8214Z" fill="#34A853"/>
<path d="M11.7657 31.0352C11.2187 29.423 10.9022 27.6955 10.9022 25.9107C10.9022 24.1256 11.2187 22.3983 11.737 20.7861L11.7225 20.4427L3.62416 14.1535L3.3592 14.2795C1.60311 17.7919 0.595459 21.7362 0.595459 25.9107C0.595459 30.0852 1.60311 34.0292 3.3592 37.5416L11.7657 31.0352Z" fill="#FBBC05"/>
<path d="M26.5061 10.0187C31.3715 10.0187 34.6534 12.1204 36.5248 13.8767L43.8374 6.73678C39.3463 2.56229 33.5019 0 26.5061 0C16.372 0 7.61996 5.81546 3.35913 14.2796L11.7369 20.7861C13.8387 14.5388 19.6542 10.0187 26.5061 10.0187Z" fill="#EB4335"/>
</g>
<defs>
<clipPath id="clip0_66_410">
<rect width="52" height="52" fill="white"/>
</clipPath>
</defs>
</svg>
